<svg width="1280" height="520" viewBox="0 0 1280 520" fill="none" xmlns="http://www.w3.org/2000/svg">
  <rect width="1280" height="520" rx="28" fill="#F8FAFC"/>
  <rect x="40" y="120" width="188" height="118" rx="24" fill="white" stroke="#CBD5E1" stroke-width="2"/>
  <text x="64" y="162" fill="#475569" font-family="Avenir Next, Helvetica Neue, Arial, sans-serif" font-size="18" font-weight="600">Student work</text>
  <text x="64" y="196" fill="#0F172A" font-family="Avenir Next, Helvetica Neue, Arial, sans-serif" font-size="24" font-weight="700">Typed, photo,</text>
  <text x="64" y="224" fill="#0F172A" font-family="Avenir Next, Helvetica Neue, Arial, sans-serif" font-size="24" font-weight="700">or voice input</text>

  <rect x="276" y="120" width="188" height="118" rx="24" fill="#EEF2FF" stroke="#C7D2FE" stroke-width="2"/>
  <text x="300" y="162" fill="#4338CA" font-family="Avenir Next, Helvetica Neue, Arial, sans-serif" font-size="18" font-weight="600">Step extraction</text>
  <text x="300" y="196" fill="#1E1B4B" font-family="Avenir Next, Helvetica Neue, Arial, sans-serif" font-size="24" font-weight="700">Recover the</text>
  <text x="300" y="224" fill="#1E1B4B" font-family="Avenir Next, Helvetica Neue, Arial, sans-serif" font-size="24" font-weight="700">reasoning path</text>

  <rect x="512" y="120" width="188" height="118" rx="24" fill="#ECFEFF" stroke="#A5F3FC" stroke-width="2"/>
  <text x="536" y="162" fill="#0F766E" font-family="Avenir Next, Helvetica Neue, Arial, sans-serif" font-size="18" font-weight="600">Misconception labels</text>
  <text x="536" y="196" fill="#134E4A" font-family="Avenir Next, Helvetica Neue, Arial, sans-serif" font-size="24" font-weight="700">Tag what broke</text>
  <text x="536" y="224" fill="#134E4A" font-family="Avenir Next, Helvetica Neue, Arial, sans-serif" font-size="24" font-weight="700">and where</text>

  <rect x="748" y="120" width="188" height="118" rx="24" fill="#FFF7ED" stroke="#FED7AA" stroke-width="2"/>
  <text x="772" y="162" fill="#C2410C" font-family="Avenir Next, Helvetica Neue, Arial, sans-serif" font-size="18" font-weight="600">Cluster pattern</text>
  <text x="772" y="196" fill="#7C2D12" font-family="Avenir Next, Helvetica Neue, Arial, sans-serif" font-size="24" font-weight="700">Group repeated</text>
  <text x="772" y="224" fill="#7C2D12" font-family="Avenir Next, Helvetica Neue, Arial, sans-serif" font-size="24" font-weight="700">class mistakes</text>

  <rect x="984" y="120" width="256" height="118" rx="24" fill="#F5F3FF" stroke="#DDD6FE" stroke-width="2"/>
  <text x="1008" y="162" fill="#6D28D9" font-family="Avenir Next, Helvetica Neue, Arial, sans-serif" font-size="18" font-weight="600">Next-move generator</text>
  <text x="1008" y="196" fill="#3B0764" font-family="Avenir Next, Helvetica Neue, Arial, sans-serif" font-size="24" font-weight="700">One next problem,</text>
  <text x="1008" y="224" fill="#3B0764" font-family="Avenir Next, Helvetica Neue, Arial, sans-serif" font-size="24" font-weight="700">rationale, teacher move</text>

  <rect x="870" y="316" width="310" height="132" rx="28" fill="#0F172A"/>
  <text x="902" y="360" fill="#A5B4FC" font-family="Avenir Next, Helvetica Neue, Arial, sans-serif" font-size="16" font-weight="700" letter-spacing="2">REVIEW GATE</text>
  <text x="902" y="394" fill="white" font-family="Avenir Next, Helvetica Neue, Arial, sans-serif" font-size="28" font-weight="700">Teacher decides whether</text>
  <text x="902" y="426" fill="white" font-family="Avenir Next, Helvetica Neue, Arial, sans-serif" font-size="28" font-weight="700">to use it</text>

  <path d="M228 179H264" stroke="#94A3B8" stroke-width="4" stroke-linecap="round"/>
  <path d="M254 167L276 179L254 191" fill="none" stroke="#94A3B8" stroke-width="4" stroke-linecap="round" stroke-linejoin="round"/>

  <path d="M464 179H500" stroke="#94A3B8" stroke-width="4" stroke-linecap="round"/>
  <path d="M490 167L512 179L490 191" fill="none" stroke="#94A3B8" stroke-width="4" stroke-linecap="round" stroke-linejoin="round"/>

  <path d="M700 179H736" stroke="#94A3B8" stroke-width="4" stroke-linecap="round"/>
  <path d="M726 167L748 179L726 191" fill="none" stroke="#94A3B8" stroke-width="4" stroke-linecap="round" stroke-linejoin="round"/>

  <path d="M936 179H972" stroke="#94A3B8" stroke-width="4" stroke-linecap="round"/>
  <path d="M962 167L984 179L962 191" fill="none" stroke="#94A3B8" stroke-width="4" stroke-linecap="round" stroke-linejoin="round"/>

  <path d="M1112 238V286C1112 303.673 1097.67 318 1080 318H1032" stroke="#8B5CF6" stroke-width="4" stroke-linecap="round" stroke-linejoin="round"/>
  <path d="M1042 306L1020 318L1042 330" fill="none" stroke="#8B5CF6" stroke-width="4" stroke-linecap="round" stroke-linejoin="round"/>

  <circle cx="134" cy="92" r="7" fill="#4F46E5"/>
  <text x="152" y="98" fill="#475569" font-family="Avenir Next, Helvetica Neue, Arial, sans-serif" font-size="18" font-weight="600">Structure first</text>

  <circle cx="348" cy="92" r="7" fill="#0D9488"/>
  <text x="366" y="98" fill="#475569" font-family="Avenir Next, Helvetica Neue, Arial, sans-serif" font-size="18" font-weight="600">Pattern signal</text>

  <circle cx="556" cy="92" r="7" fill="#EA580C"/>
  <text x="574" y="98" fill="#475569" font-family="Avenir Next, Helvetica Neue, Arial, sans-serif" font-size="18" font-weight="600">One bounded output</text>
</svg>
